<svg width="533" height="534" xmlns="http://www.w3.org/2000/svg" xmlns:xlink="http://www.w3.org/1999/xlink" overflow="hidden"><defs><clipPath id="clip0"><rect x="95" y="60" width="533" height="534"/></clipPath></defs><g clip-path="url(#clip0)" transform="translate(-95 -60)"><path d="M490.804 152.682C490.804 145.465 484.697 139.357 477.479 139.357L463.044 139.357C479.145 114.928 472.482 82.1708 448.608 66.0698 430.842 54.4104 408.078 54.4104 390.311 66.0698L390.311 52.1896C390.311 44.9719 385.315 38.8646 378.097 37.7542 370.324 37.199 363.661 42.751 363.106 49.9688 363.106 50.524 363.106 51.0792 363.106 51.6344L363.106 65.5146C361.996 63.849 360.885 62.7385 359.22 61.0729 338.677 40.5302 305.365 40.5302 284.822 61.0729 264.279 81.6156 264.279 114.928 284.822 135.471 285.932 136.581 287.598 138.247 289.264 139.357L275.939 139.357C268.721 139.357 262.614 144.354 261.503 151.572 260.948 159.345 266.5 166.007 273.718 166.562 274.273 166.562 274.828 166.562 275.383 166.562L288.708 166.562C282.046 176.001 279.27 187.66 279.825 199.32 279.825 205.427 277.604 211.534 273.163 215.421L42.1958 447.498C37.7542 451.94 37.7542 458.602 42.1958 463.044L65.5146 486.363C69.9563 490.804 76.6188 490.804 81.0604 486.363L96.6062 470.817 116.039 490.249C120.48 494.691 127.143 494.691 131.584 490.249L147.13 474.703C151.572 470.261 151.572 463.599 147.13 459.157L127.698 439.725 143.244 424.179 174.891 455.826C179.332 460.268 185.995 460.268 190.436 455.826L190.436 455.826 213.755 432.507C218.197 428.066 218.197 421.403 213.755 416.961L183.219 384.759 312.582 255.396C317.024 250.954 323.131 248.733 329.239 248.733 330.349 248.733 331.459 248.733 332.57 248.733 343.119 248.733 353.112 245.402 361.996 239.85L361.996 254.285C361.996 261.503 366.993 267.61 374.21 268.721 381.983 269.276 388.646 263.724 389.201 256.506 389.201 255.951 389.201 255.396 389.201 254.841L389.201 240.96C390.311 242.626 391.422 243.736 393.088 245.402 413.63 265.945 446.943 265.945 467.485 245.402 488.028 224.859 488.028 191.547 467.485 171.004L467.485 171.004C466.375 169.894 464.709 168.228 463.044 167.118L476.924 167.118C484.697 167.118 490.804 161.01 490.804 153.238L490.804 152.682ZM401.416 92.1646C411.409 82.1708 426.955 82.1708 436.949 92.1646 446.943 102.158 446.943 117.704 436.949 127.698 426.955 137.692 411.409 137.692 401.416 127.698 396.974 123.256 394.198 116.594 394.198 109.931 394.198 103.269 396.419 97.1615 401.416 92.1646ZM303.144 80.5052C313.138 70.5115 328.683 70.5115 338.677 80.5052 348.671 90.499 348.671 106.045 338.677 116.039 328.683 126.032 313.138 126.032 303.144 116.039 298.702 111.597 295.926 104.934 295.926 98.2719 295.926 91.6094 298.702 85.5021 303.144 80.5052ZM350.336 214.31C340.343 224.304 324.797 224.304 314.803 214.31 304.809 204.317 304.809 188.771 314.803 178.777 324.797 168.783 340.343 168.783 350.336 178.777 354.778 183.219 357.554 189.881 357.554 196.544 357.554 203.206 354.778 209.314 350.336 214.31ZM448.608 225.97C438.615 235.964 423.069 235.964 413.075 225.97 403.081 215.976 403.081 200.43 413.075 190.436 423.069 180.443 438.615 180.443 448.608 190.436 453.05 194.878 455.826 201.541 455.826 208.203 455.826 214.866 453.05 220.973 448.608 225.97Z" fill="#FFFFFF" transform="matrix(1 0 0 1.00188 95 60)"/></g></svg>