<svg width="588" height="588" xmlns="http://www.w3.org/2000/svg" xmlns:xlink="http://www.w3.org/1999/xlink" overflow="hidden"><defs><clipPath id="clip0"><rect x="346" y="66" width="588" height="588"/></clipPath></defs><g clip-path="url(#clip0)" transform="translate(-346 -66)"><path d="M799.25 415.125C785.775 415.125 774.75 404.1 774.75 390.625 774.75 377.15 785.775 366.125 799.25 366.125 812.725 366.125 823.75 377.15 823.75 390.625 823.75 404.1 812.725 415.125 799.25 415.125ZM860.5 329.375 848.25 329.375 848.25 262C848.25 248.525 837.225 237.5 823.75 237.5L480.75 237.5C474.013 237.5 468.5 231.988 468.5 225.25 468.5 218.512 474.013 213 480.75 213L823.75 213 823.75 200.75C823.75 187.275 812.725 176.25 799.25 176.25L480.75 176.25C453.8 176.25 431.75 198.3 431.75 225.25L431.75 494.75C431.75 521.7 453.8 543.75 480.75 543.75L823.75 543.75C837.225 543.75 848.25 532.725 848.25 519.25L848.25 451.875 860.5 451.875C867.237 451.875 872.75 446.362 872.75 439.625L872.75 341.625C872.75 334.888 867.237 329.375 860.5 329.375Z" fill="#FFFFFF"/></g></svg>