<svg width="860" height="860" xmlns="http://www.w3.org/2000/svg" xmlns:xlink="http://www.w3.org/1999/xlink" overflow="hidden"><defs><clipPath id="clip0"><rect x="210" y="-70" width="860" height="860"/></clipPath></defs><g clip-path="url(#clip0)" transform="translate(-210 70)"><path d="M706.74 276.777C690.616 287.927 675.615 300.618 661.948 314.671 717.311 406.484 687.763 525.794 595.95 581.157 504.137 636.52 384.827 606.972 329.464 515.159 274.1 423.346 303.649 304.035 395.462 248.673 445.497 218.501 506.459 212.471 561.435 232.254 574.71 215.97 589.73 201.189 606.227 188.179 481.609 127.671 331.534 179.642 271.026 304.259 210.517 428.878 262.488 578.952 387.106 639.461 511.725 699.97 661.799 647.999 722.307 523.38 738.896 489.216 747.511 451.73 747.5 413.75 747.5 306.25 706.74 276.777 706.74 276.777Z" fill="#FFFFFF"/><path d="M880.621 182.446 837.71 228.76C939.816 258.937 998.126 366.172 967.949 468.278 937.773 570.383 830.537 628.694 728.432 598.517 725.054 597.519 721.704 596.427 718.385 595.246 705.067 611.464 690.051 626.209 673.594 639.231 799.699 696.575 948.415 640.833 1005.76 514.727 1063.1 388.621 1007.36 239.906 881.254 182.562 881.103 182.493 880.951 182.425 880.8 182.356Z" fill="#FFFFFF"/><path d="M728.956 228.76 686.046 182.446C558.347 236.147 498.359 383.201 552.06 510.9 557.911 524.815 565.007 538.173 573.26 550.812 590.42 541.155 605.613 528.362 618.052 513.098 599.388 483.366 589.771 448.85 590.371 413.75 590.26 328.12 646.747 252.719 728.956 228.76Z" fill="#FFFFFF"/><path d="M711.667 55.4167 666.875 109.167 783.333 234.583 899.792 109.167 855 55.4167 711.667 55.4167Z" fill="#FFFFFF"/></g></svg>